# xmcd
#
# Track frame offsets: 
#        150
#        13346
#        22918
#        35508
#        46285
#        54912
#        68205
#        84070
#        95940
#        105552
#        114998
#        123886
#
# Disc length: 1774 seconds
#
# Revision: 0
# Processed by: cddbd v1.5.2PL0 Copyright (c) Steve Scherf et al.
# Submitted via: ExactAudioCopy v0.99pb5
#
DISCID=8f06ec0c
DTITLE=The Oak Ridge Boys - Old Time Gospel - Disc 1
DYEAR=2009
DGENRE=Gospel
TTITLE0=Angels Must Have Cried
TTITLE1=Anywhere is Home
TTITLE2=Because Of Him
TTITLE3=Close To The Master
TTITLE4=Day Of Rejoicing
TTITLE5=Dear Jesus Abide With Me
TTITLE6=Farther Along
TTITLE7=God's Hands
TTITLE8=I know My Savior Is There
TTITLE9=I Know Who Holds Tomorrow
TTITLE10=I'll Live In Glory
TTITLE11=I'll Shake The Hand Of The Lord
EXTD=
EXTT0=
EXTT1=
EXTT2=
EXTT3=
EXTT4=
EXTT5=
EXTT6=
EXTT7=
EXTT8=
EXTT9=
EXTT10=
EXTT11=
PLAYORDER=
